 <svg xmlns="http://www.w3.org/2000/svg" version="1.1" width="2350px" height="772px" style="shape-rendering:geometricPrecision; text-rendering:geometricPrecision; image-rendering:optimizeQuality; fill-rule:evenodd; clip-rule:evenodd" xmlns:xlink="http://www.w3.org/1999/xlink">
    <g><path style="opacity:0.981" fill="#46aac5" d="M 358.5,-0.5 C 359.167,-0.5 359.833,-0.5 360.5,-0.5C 370.331,12.839 379.164,26.839 387,41.5C 403.472,76.0831 408.805,112.416 403,150.5C 396.82,182.173 386.154,212.173 371,240.5C 361.968,255.52 352.968,270.52 344,285.5C 333.304,300.188 322.638,314.855 312,329.5C 273.882,374.943 236.548,420.943 200,467.5C 176.993,498.841 155.993,531.508 137,565.5C 118.499,600.146 105.499,636.813 98,675.5C 93.6598,707.817 95.1598,739.817 102.5,771.5C 102.167,771.5 101.833,771.5 101.5,771.5C 66.7989,721.469 51.6323,665.802 56,604.5C 58.1715,576.31 63.1715,548.644 71,521.5C 77.0836,501.158 84.0836,481.158 92,461.5C 103.777,435.278 116.11,409.278 129,383.5C 138.485,362.378 145.151,340.378 149,317.5C 151.145,302.848 149.145,288.848 143,275.5C 133.701,262.854 121.034,256.854 105,257.5C 89.3219,258.211 74.1552,261.378 59.5,267C 38.9335,275.458 18.9335,284.958 -0.5,295.5C -0.5,294.5 -0.5,293.5 -0.5,292.5C 8.74995,267.082 25.0833,247.582 48.5,234C 72.9619,221.179 98.6286,211.512 125.5,205C 164.397,196.154 203.397,187.821 242.5,180C 274.563,174.213 303.897,162.213 330.5,144C 358.463,120.885 371.297,91.0515 369,54.5C 367.995,35.6452 364.495,17.3118 358.5,-0.5 Z"/></g>
    <g><path style="opacity:0.977" fill="#46aac5" d="M 215.5,26.5 C 253.281,23.4565 278.114,39.7898 290,75.5C 294.593,112.845 279.426,138.012 244.5,151C 208.127,157.399 182.294,143.899 167,110.5C 158.31,73.717 170.81,46.8837 204.5,30C 208.254,28.6912 211.921,27.5246 215.5,26.5 Z"/></g>
    <g><path style="opacity:0.982" fill="#00556f" d="M 424.5,114.5 C 428.514,114.334 432.514,114.501 436.5,115C 514.272,295.573 591.272,476.406 667.5,657.5C 625.828,657.833 584.161,657.5 542.5,656.5C 525.713,616.772 509.38,576.939 493.5,537C 417.831,536.167 342.164,536.333 266.5,537.5C 250.542,577.514 234.209,617.347 217.5,657C 185.835,657.5 154.168,657.667 122.5,657.5C 124.604,647.013 127.438,636.68 131,626.5C 139.798,603.431 150.131,581.097 162,559.5C 185.249,522.017 210.249,485.684 237,450.5C 269.239,411.684 301.239,372.684 333,333.5C 346.057,315.442 358.723,297.109 371,278.5C 371.667,279.833 371.667,281.167 371,282.5C 350.257,331.312 330.09,380.312 310.5,429.5C 357.163,430.667 403.83,430.833 450.5,430C 426.832,374.145 403.832,317.979 381.5,261.5C 398.083,232.189 410.583,201.189 419,168.5C 422.748,150.692 424.581,132.692 424.5,114.5 Z"/></g>
    <g><path style="opacity:0.972" fill="#282323" d="M 1749.5,144.5 C 1787.36,140.283 1819.53,151.616 1846,178.5C 1869.95,209.531 1875.28,243.531 1862,280.5C 1849.87,307.298 1830.04,325.798 1802.5,336C 1820.03,352.224 1837.7,352.224 1855.5,336C 1856.76,335.018 1858.09,334.685 1859.5,335C 1866.19,342.222 1872.52,349.722 1878.5,357.5C 1868.22,370.982 1854.55,378.815 1837.5,381C 1812.24,383.799 1789.91,377.132 1770.5,361C 1763.2,354.698 1756.2,348.032 1749.5,341C 1710.81,335.291 1683.31,314.791 1667,279.5C 1652.48,235.746 1661.98,198.246 1695.5,167C 1711.61,154.771 1729.61,147.271 1749.5,144.5 Z M 1757.5,182.5 C 1788.69,180.993 1809.86,194.659 1821,223.5C 1827.82,249.408 1821.65,271.575 1802.5,290C 1784.14,303.123 1764.14,306.123 1742.5,299C 1714.24,284.986 1702.41,262.153 1707,230.5C 1713.36,203.305 1730.19,187.305 1757.5,182.5 Z"/></g>
    <g><path style="opacity:0.972" fill="#282323" d="M 933.5,147.5 C 948.745,147.176 963.911,147.509 979,148.5C 1007.17,211.5 1035.33,274.5 1063.5,337.5C 1056.83,337.833 1050.17,338.167 1043.5,338.5C 1034.09,338.699 1024.75,338.032 1015.5,336.5C 1010.36,323.752 1005.03,311.085 999.5,298.5C 970.506,297.333 941.506,297.167 912.5,298C 906.833,311 901.167,324 895.5,337C 880.167,337.667 864.833,337.667 849.5,337C 877.793,273.951 905.793,210.784 933.5,147.5 Z M 955.5,192.5 C 965.382,215.957 975.382,239.457 985.5,263C 965.833,263.667 946.167,263.667 926.5,263C 936.585,239.665 946.251,216.165 955.5,192.5 Z"/></g>
    <g><path style="opacity:0.975" fill="#282323" d="M 1114.5,147.5 C 1162.5,147.5 1210.5,147.5 1258.5,147.5C 1258.5,159.5 1258.5,171.5 1258.5,183.5C 1225.5,183.5 1192.5,183.5 1159.5,183.5C 1159.5,199.833 1159.5,216.167 1159.5,232.5C 1188.83,232.5 1218.17,232.5 1247.5,232.5C 1247.5,244.5 1247.5,256.5 1247.5,268.5C 1218.17,268.5 1188.83,268.5 1159.5,268.5C 1159.5,291.833 1159.5,315.167 1159.5,338.5C 1144.5,338.5 1129.5,338.5 1114.5,338.5C 1114.5,274.833 1114.5,211.167 1114.5,147.5 Z"/></g>
    <g><path style="opacity:0.971" fill="#282323" d="M 1319.5,147.5 C 1351.5,147.333 1383.5,147.5 1415.5,148C 1438.98,149.159 1458.15,158.659 1473,176.5C 1484.3,194.339 1487.63,213.672 1483,234.5C 1477.95,254.755 1465.78,268.921 1446.5,277C 1460.69,297.029 1474.69,317.195 1488.5,337.5C 1472.17,338.833 1455.83,338.833 1439.5,337.5C 1428.08,320.326 1416.41,303.326 1404.5,286.5C 1391.18,285.501 1377.85,285.167 1364.5,285.5C 1364.5,303.167 1364.5,320.833 1364.5,338.5C 1349.5,338.5 1334.5,338.5 1319.5,338.5C 1319.5,274.833 1319.5,211.167 1319.5,147.5 Z M 1364.5,184.5 C 1379.84,184.333 1395.17,184.5 1410.5,185C 1428.93,187.763 1438.6,198.43 1439.5,217C 1437.3,237.199 1425.96,247.866 1405.5,249C 1391.84,249.5 1378.17,249.667 1364.5,249.5C 1364.5,227.833 1364.5,206.167 1364.5,184.5 Z"/></g>
    <g><path style="opacity:0.97" fill="#282323" d="M 1551.5,147.5 C 1566.5,147.5 1581.5,147.5 1596.5,147.5C 1596.5,211.167 1596.5,274.833 1596.5,338.5C 1581.5,338.5 1566.5,338.5 1551.5,338.5C 1551.5,274.833 1551.5,211.167 1551.5,147.5 Z"/></g>
    <g><path style="opacity:0.975" fill="#282323" d="M 1931.5,147.5 C 1946.5,147.5 1961.5,147.5 1976.5,147.5C 1976.33,184.835 1976.5,222.168 1977,259.5C 1979.95,293.756 1998.45,307.589 2032.5,301C 2046.35,296.809 2054.85,287.643 2058,273.5C 2058.96,268.877 2059.62,264.21 2060,259.5C 2060.5,222.168 2060.67,184.835 2060.5,147.5C 2075.17,147.5 2089.83,147.5 2104.5,147.5C 2104.67,187.168 2104.5,226.835 2104,266.5C 2101.11,305.714 2080.61,329.881 2042.5,339C 2016.29,344.281 1991.29,340.948 1967.5,329C 1949.25,317.03 1938.08,300.197 1934,278.5C 1933,272.539 1932.34,266.539 1932,260.5C 1931.5,222.835 1931.33,185.168 1931.5,147.5 Z"/></g>
    <g><path style="opacity:0.969" fill="#282323" d="M 2178.5,147.5 C 2226.5,147.5 2274.5,147.5 2322.5,147.5C 2322.5,159.5 2322.5,171.5 2322.5,183.5C 2289.5,183.5 2256.5,183.5 2223.5,183.5C 2223.5,196.833 2223.5,210.167 2223.5,223.5C 2252.83,223.5 2282.17,223.5 2311.5,223.5C 2311.5,235.167 2311.5,246.833 2311.5,258.5C 2282.17,258.5 2252.83,258.5 2223.5,258.5C 2223.5,272.833 2223.5,287.167 2223.5,301.5C 2257.83,301.5 2292.17,301.5 2326.5,301.5C 2326.5,313.833 2326.5,326.167 2326.5,338.5C 2277.17,338.5 2227.83,338.5 2178.5,338.5C 2178.5,274.833 2178.5,211.167 2178.5,147.5 Z"/></g>
    <g><path style="opacity:0.938" fill="#00556f" d="M 1155.5,437.5 C 1179.48,436.191 1201.48,442.024 1221.5,455C 1225.3,457.797 1228.8,460.964 1232,464.5C 1232.67,465.5 1232.67,466.5 1232,467.5C 1227.99,471.682 1223.82,475.682 1219.5,479.5C 1197.27,458.78 1171.27,452.113 1141.5,459.5C 1105,471.282 1085.67,496.448 1083.5,535C 1086.86,578.356 1109.86,604.022 1152.5,612C 1178.37,615.042 1200.87,607.875 1220,590.5C 1224.29,593.785 1228.29,597.452 1232,601.5C 1232.67,602.5 1232.67,603.5 1232,604.5C 1216.43,620.035 1197.6,628.868 1175.5,631C 1130.11,635.466 1095.94,618.299 1073,579.5C 1062.7,555.551 1060.7,530.884 1067,505.5C 1082.13,464.18 1111.63,441.514 1155.5,437.5 Z"/></g>
    <g><path style="opacity:0.943" fill="#00556f" d="M 928.5,439.5 C 935.863,439.169 943.197,439.503 950.5,440.5C 979.733,503.628 1008.4,566.962 1036.5,630.5C 1028.88,630.671 1021.38,630.004 1014,628.5C 1006.56,612.618 999.392,596.618 992.5,580.5C 957.167,579.167 921.833,579.167 886.5,580.5C 879.608,596.618 872.441,612.618 865,628.5C 857.58,629.647 850.08,629.813 842.5,629C 871.462,565.94 900.128,502.773 928.5,439.5 Z M 938.5,463.5 C 940.335,464.122 941.502,465.456 942,467.5C 955.977,499.101 970.143,530.601 984.5,562C 954.5,562.667 924.5,562.667 894.5,562C 909.582,529.338 924.249,496.504 938.5,463.5 Z"/></g>
    <g><path style="opacity:0.94" fill="#00556f" d="M 1341.5,439.5 C 1348.86,439.169 1356.2,439.503 1363.5,440.5C 1392.73,503.628 1421.4,566.962 1449.5,630.5C 1442.14,630.831 1434.8,630.497 1427.5,629.5C 1419.89,613.285 1412.56,596.952 1405.5,580.5C 1370.17,579.167 1334.83,579.167 1299.5,580.5C 1292.44,596.952 1285.11,613.285 1277.5,629.5C 1270.17,630.833 1262.83,630.833 1255.5,629.5C 1284.37,566.214 1313.04,502.881 1341.5,439.5 Z M 1351.5,463.5 C 1353.34,464.122 1354.5,465.456 1355,467.5C 1368.98,499.101 1383.14,530.601 1397.5,562C 1367.5,562.667 1337.5,562.667 1307.5,562C 1322.58,529.338 1337.25,496.504 1351.5,463.5 Z"/></g>
    <g><path style="opacity:0.944" fill="#00556f" d="M 1495.5,439.5 C 1525.84,439.333 1556.17,439.5 1586.5,440C 1620.18,442.735 1646.02,458.235 1664,486.5C 1676.1,511.138 1678.76,536.805 1672,563.5C 1658.57,602.244 1631.41,624.077 1590.5,629C 1558.85,630.365 1527.18,630.865 1495.5,630.5C 1495.5,566.833 1495.5,503.167 1495.5,439.5 Z M 1516.5,457.5 C 1540.53,457.096 1564.53,457.596 1588.5,459C 1620.66,463.832 1641.83,481.665 1652,512.5C 1659.45,542.552 1652.61,568.719 1631.5,591C 1617.98,602.513 1602.31,609.18 1584.5,611C 1561.84,611.5 1539.17,611.667 1516.5,611.5C 1516.5,560.167 1516.5,508.833 1516.5,457.5 Z"/></g>
    <g><path style="opacity:0.947" fill="#00556f" d="M 1735.5,439.5 C 1779.17,439.5 1822.83,439.5 1866.5,439.5C 1866.5,445.5 1866.5,451.5 1866.5,457.5C 1829.83,457.5 1793.17,457.5 1756.5,457.5C 1756.5,479.833 1756.5,502.167 1756.5,524.5C 1789.17,524.5 1821.83,524.5 1854.5,524.5C 1854.5,530.5 1854.5,536.5 1854.5,542.5C 1821.83,542.5 1789.17,542.5 1756.5,542.5C 1756.5,565.5 1756.5,588.5 1756.5,611.5C 1794.5,611.5 1832.5,611.5 1870.5,611.5C 1870.5,617.833 1870.5,624.167 1870.5,630.5C 1825.5,630.5 1780.5,630.5 1735.5,630.5C 1735.5,566.833 1735.5,503.167 1735.5,439.5 Z"/></g>
    <g><path style="opacity:0.938" fill="#00556f" d="M 1932.5,439.5 C 1938.76,439.19 1944.92,439.524 1951,440.5C 1978,486.5 2005,532.5 2032,578.5C 2059.09,532.664 2085.92,486.664 2112.5,440.5C 2118.46,439.504 2124.46,439.171 2130.5,439.5C 2130.5,502.833 2130.5,566.167 2130.5,629.5C 2123.83,629.5 2117.17,629.5 2110.5,629.5C 2110.67,579.832 2110.5,530.166 2110,480.5C 2086,521.833 2062,563.167 2038,604.5C 2034.26,605.626 2030.42,605.793 2026.5,605C 2002.21,564.249 1978.04,523.416 1954,482.5C 1953.5,531.832 1953.33,581.166 1953.5,630.5C 1946.5,630.5 1939.5,630.5 1932.5,630.5C 1932.5,566.833 1932.5,503.167 1932.5,439.5 Z"/></g>
    <g><path style="opacity:0.944" fill="#00556f" d="M 2349.5,439.5 C 2349.5,440.167 2349.5,440.833 2349.5,441.5C 2324.2,482.328 2299.03,523.328 2274,564.5C 2273.5,586.164 2273.33,607.831 2273.5,629.5C 2266.83,629.5 2260.17,629.5 2253.5,629.5C 2253.67,607.831 2253.5,586.164 2253,564.5C 2227.63,523.298 2202.47,481.965 2177.5,440.5C 2185.17,439.167 2192.83,439.167 2200.5,440.5C 2221.47,475.299 2242.63,509.965 2264,544.5C 2285.33,509.833 2306.67,475.167 2328,440.5C 2335.08,439.52 2342.25,439.187 2349.5,439.5 Z"/></g>
    </svg>
