<svg clip-rule="evenodd" fill-rule="evenodd" viewBox="0 0 772 772" width="25" xmlns="http://www.w3.org/2000/svg"><path d="m409.5-.5h2c9.831 13.339 18.664 27.339 26.5 42 16.472 34.5831 21.805 70.916 16 109-6.18 31.673-16.846 61.673-32 90-9.032 15.02-18.032 30.02-27 45-10.696 14.688-21.362 29.355-32 44-38.118 45.443-75.452 91.443-112 138-23.007 31.341-44.007 64.008-63 98-18.501 34.646-31.501 71.313-39 110-4.34 32.317-2.84 64.317 4.5 96-.333 0-.667 0-1 0-34.701-50.031-49.868-105.698-45.5-167 2.172-28.19 7.172-55.856 15-83 6.084-20.342 13.084-40.342 21-60 11.777-26.222 24.11-52.222 37-78 9.485-21.122 16.151-43.122 20-66 2.145-14.652.145-28.652-6-42-9.299-12.646-21.966-18.646-38-18-15.678.711-30.845 3.878-45.5 9.5-20.5665 8.458-40.5665 17.958-60 28.5 7.5351-24.921 22.2018-44.421 44-58.5 25.761-14.589 53.094-25.256 82-32 38.897-8.846 77.897-17.179 117-25 32.063-5.787 61.397-17.787 88-36 27.963-23.115 40.797-52.9485 38.5-89.5-1.005-18.8548-4.505-37.1882-10.5-55z" fill="#46aac5" opacity=".981"/><path d="m266.5 26.5c37.781-3.0435 62.614 13.2898 74.5 49 4.593 37.345-10.574 62.512-45.5 75.5-36.373 6.399-62.206-7.101-77.5-40.5-8.69-36.783 3.81-63.6163 37.5-80.5 3.754-1.3088 7.421-2.4754 11-3.5z" fill="#46aac5" opacity=".977"/><path d="m475.5 114.5c4.014-.166 8.014.001 12 .5 77.772 180.573 154.772 361.406 231 542.5-41.672.333-83.339 0-125-1-16.787-39.728-33.12-79.561-49-119.5-75.669-.833-151.336-.667-227 .5-15.958 40.014-32.291 79.847-49 119.5-31.665.5-63.332.667-95 .5 2.104-10.487 4.938-20.82 8.5-31 8.798-23.069 19.131-45.403 31-67 23.249-37.483 48.249-73.816 75-109 32.239-38.816 64.239-77.816 96-117 13.057-18.058 25.723-36.391 38-55 .667 1.333.667 2.667 0 4-20.743 48.812-40.91 97.812-60.5 147 46.663 1.167 93.33 1.333 140 .5-23.668-55.855-46.668-112.021-69-168.5 16.583-29.311 29.083-60.311 37.5-93 3.748-17.808 5.581-35.808 5.5-54z" fill="#00556f" opacity=".982"/></svg>
